# xmcd CD database file
#
# Track frame offsets:
#	150
#	20102
#	37384
#	63909
#	97525
#	115497
#	131668
#	158463
#	182355
#	203305
#	229772
#	240909
#	255852
#	276847
#	287683
#	314321
#	337719
#
# Disc length: 4737 seconds
#
# Revision: 0
# Processed by: cddbd v1.4PL0 Copyright (c) Steve Scherf et al.
# Submitted via: CDex 1.51
#
DISCID=d4127f11
DTITLE=aa.vv. - Essential Electronic Jazz Selection Mix-Soft
DYEAR=2003
DGENRE=Jazz
TTITLE0=Silent Steps [ Nuspirit Helsinki ]
TTITLE1=Just You and Me [ D-Genre ]
TTITLE2=De Muse [ Fragmentorchestra ]
TTITLE3=Falling Down [ Conapt Featuring Si Brad and Azeem ]
TTITLE4=Bohemian Sunset [ Jazzanova ]
TTITLE5=Black And Blue [ Taxi ]
TTITLE6=The Sequel [ Chriss Joss ]
TTITLE7=Swell Sounds [ Square One ]
TTITLE8=Hurt Of A Nerd [ Visit Venus ] ( Edit Mix )
TTITLE9=Mango Di Bango [ Tosca ]
TTITLE10=Medina [ No Jazz ]
TTITLE11=Beyond [ Mr Scruff ]
TTITLE12=Afro Paris [ Solar Sides ]
TTITLE13=Black rain [ Black Mighty Orchestra ]
TTITLE14=3 play it cool [ Crazy Penis ]
TTITLE15=La bossa arabica [ Dzihan and Kamien ]
TTITLE16=Akasha theme [ Akasha ]
EXTD=YEAR: 2003
EXTT0=
EXTT1=
EXTT2=
EXTT3=
EXTT4=
EXTT5=
EXTT6=
EXTT7=
EXTT8=
EXTT9=
EXTT10=
EXTT11=
EXTT12=
EXTT13=
EXTT14=
EXTT15=
EXTT16=
PLAYORDER=
